<?xml version="1.0" encoding="UTF-8"?>

<svg version="1.2" baseProfile="tiny" width="25.01mm" height="26.47mm" viewBox="3053 17038 2501 2647" preserveAspectRatio="xMidYMid" fill-rule="evenodd" stroke-width="28.222" stroke-linejoin="round" xmlns="http://www.w3.org/2000/svg" xmlns:xlink="http://www.w3.org/1999/xlink" xml:space="preserve">
 <g visibility="visible" id="Slide_1">
  <g>
   <path fill="rgb(0,0,0)" stroke="none" d="M 4282,17804 L 4245,17806 4208,17810 4171,17815 4135,17822 4099,17831 4063,17841 4028,17853 3994,17867 3960,17882 3928,17899 3896,17917 3865,17937 3835,17958 3807,17981 3780,18005 3754,18030 3729,18056 3706,18084 3684,18112 3664,18142 3646,18172 3629,18204 3613,18235 3600,18268 3588,18301 3578,18335 3570,18369 3563,18404 3559,18439 3556,18474 3555,18509 3556,18544 3559,18579 3563,18614 3570,18648 3578,18682 3588,18716 3600,18749 3614,18782 3629,18814 3646,18845 3665,18875 3685,18905 3707,18933 3730,18961 3755,18987 3781,19012 3808,19036 3837,19058 3866,19080 3897,19099 3929,19118 3962,19134 3995,19150 4030,19163 4065,19175 4100,19186 4136,19194 4173,19201 4210,19207 4247,19210 4284,19212 4321,19212 4359,19210 4396,19207 4432,19201 4469,19194 4505,19186 4541,19176 4576,19164 4610,19150 4644,19135 4676,19118 4708,19100 4739,19080 4769,19059 4797,19036 4825,19013 4851,18987 4875,18961 4899,18934 4920,18905 4941,18876 4959,18846 4976,18814 4992,18783 5005,18750 5017,18717 5028,18683 5036,18649 5042,18614 5047,18579 5050,18544 5051,18509 5553,18510 5551,18568 5547,18627 5539,18685 5528,18743 5514,18800 5497,18856 5477,18912 5454,18966 5429,19020 5400,19072 5369,19122 5335,19172 5299,19219 5260,19265 5218,19309 5175,19351 5129,19390 5082,19428 5032,19463 4980,19496 4927,19527 4872,19555 4816,19580 4759,19603 4700,19623 4641,19640 4581,19655 4520,19666 4458,19675 4396,19681 4334,19684 4271,19684 4209,19681 4147,19675 4086,19666 4025,19654 3964,19640 3905,19623 3846,19603 3789,19580 3733,19555 3678,19527 3625,19496 3574,19463 3524,19428 3476,19390 3431,19350 3387,19308 3346,19264 3307,19219 3271,19171 3237,19122 3206,19071 3177,19019 3151,18966 3129,18911 3109,18855 3092,18799 3078,18742 3067,18684 3059,18626 3055,18568 3053,18509 3054,18451 3059,18392 3067,18334 3077,18276 3091,18219 3108,18163 3128,18107 3151,18053 3176,17999 3204,17947 3235,17896 3269,17847 3305,17799 3344,17754 3385,17710 3429,17668 3474,17628 3522,17590 3572,17554 3623,17521 3676,17491 3731,17463 3787,17437 3844,17414 3902,17394 3962,17377 4022,17362 4083,17350 4145,17341 4207,17335 4269,17332 4260,17038 4839,17554 4291,18099 4282,17804 Z"/>
   <path fill="none" stroke="rgb(0,0,0)" id="Drawing_1_0" stroke-linejoin="round" d="M 4282,17804 L 4245,17806 4208,17810 4171,17815 4135,17822 4099,17831 4063,17841 4028,17853 3994,17867 3960,17882 3928,17899 3896,17917 3865,17937 3835,17958 3807,17981 3780,18005 3754,18030 3729,18056 3706,18084 3684,18112 3664,18142 3646,18172 3629,18204 3613,18235 3600,18268 3588,18301 3578,18335 3570,18369 3563,18404 3559,18439 3556,18474 3555,18509 3556,18544 3559,18579 3563,18614 3570,18648 3578,18682 3588,18716 3600,18749 3614,18782 3629,18814 3646,18845 3665,18875 3685,18905 3707,18933 3730,18961 3755,18987 3781,19012 3808,19036 3837,19058 3866,19080 3897,19099 3929,19118 3962,19134 3995,19150 4030,19163 4065,19175 4100,19186 4136,19194 4173,19201 4210,19207 4247,19210 4284,19212 4321,19212 4359,19210 4396,19207 4432,19201 4469,19194 4505,19186 4541,19176 4576,19164 4610,19150 4644,19135 4676,19118 4708,19100 4739,19080 4769,19059 4797,19036 4825,19013 4851,18987 4875,18961 4899,18934 4920,18905 4941,18876 4959,18846 4976,18814 4992,18783 5005,18750 5017,18717 5028,18683 5036,18649 5042,18614 5047,18579 5050,18544 5051,18509 5553,18510 5551,18568 5547,18627 5539,18685 5528,18743 5514,18800 5497,18856 5477,18912 5454,18966 5429,19020 5400,19072 5369,19122 5335,19172 5299,19219 5260,19265 5218,19309 5175,19351 5129,19390 5082,19428 5032,19463 4980,19496 4927,19527 4872,19555 4816,19580 4759,19603 4700,19623 4641,19640 4581,19655 4520,19666 4458,19675 4396,19681 4334,19684 4271,19684 4209,19681 4147,19675 4086,19666 4025,19654 3964,19640 3905,19623 3846,19603 3789,19580 3733,19555 3678,19527 3625,19496 3574,19463 3524,19428 3476,19390 3431,19350 3387,19308 3346,19264 3307,19219 3271,19171 3237,19122 3206,19071 3177,19019 3151,18966 3129,18911 3109,18855 3092,18799 3078,18742 3067,18684 3059,18626 3055,18568 3053,18509 3054,18451 3059,18392 3067,18334 3077,18276 3091,18219 3108,18163 3128,18107 3151,18053 3176,17999 3204,17947 3235,17896 3269,17847 3305,17799 3344,17754 3385,17710 3429,17668 3474,17628 3522,17590 3572,17554 3623,17521 3676,17491 3731,17463 3787,17437 3844,17414 3902,17394 3962,17377 4022,17362 4083,17350 4145,17341 4207,17335 4269,17332 4260,17038 4839,17554 4291,18099 4282,17804 Z"/>
   <rect fill="none" stroke="none" x="3052" y="17331" width="2502" height="2354"/>
  </g>
  <g>
   <path fill="rgb(0,0,0)" stroke="none" d="M 4632,18508 L 3973,18838 3973,18179 4632,18508 Z"/>
   <path fill="none" stroke="rgb(0,0,0)" id="Drawing_2_0" stroke-linejoin="round" d="M 4632,18508 L 3973,18838 3973,18179 4632,18508 Z"/>
   <rect fill="none" stroke="none" x="3974" y="18179" width="660" height="660"/>
  </g>
 </g>
</svg>